<svg width="35" height="35" viewBox="0 0 35 35" fill="none" xmlns="http://www.w3.org/2000/svg">
<path d="M10.208 10.2083H8.74967C7.97613 10.2083 7.23426 10.5155 6.68728 11.0625C6.1403 11.6095 5.83301 12.3514 5.83301 13.1249V26.2499C5.83301 27.0235 6.1403 27.7653 6.68728 28.3123C7.23426 28.8593 7.97613 29.1666 8.74967 29.1666H21.8747C22.6482 29.1666 23.3901 28.8593 23.9371 28.3123C24.4841 27.7653 24.7913 27.0235 24.7913 26.2499V24.7916" stroke="black" stroke-width="2" stroke-linecap="round" stroke-linejoin="round"/>
<path d="M23.3333 7.29158L27.7083 11.6666M29.7281 9.60304C30.3025 9.02868 30.6252 8.24968 30.6252 7.43741C30.6252 6.62514 30.3025 5.84615 29.7281 5.27179C29.1538 4.69743 28.3748 4.37476 27.5625 4.37476C26.7502 4.37476 25.9712 4.69743 25.3969 5.27179L13.125 17.4999V21.8749H17.5L29.7281 9.60304Z" stroke="black" stroke-width="2" stroke-linecap="round" stroke-linejoin="round"/>
</svg>
