<svg width="40" height="40" viewBox="0 0 40 40" fill="none" xmlns="http://www.w3.org/2000/svg">
<path d="M29.9999 24.9999C28.6906 25.001 27.4339 25.5156 26.4999 26.4332L13.3332 20.5666C13.3332 20.3666 13.3332 20.1999 13.3332 19.9999C13.3332 19.7999 13.3332 19.6332 13.3332 19.4499L26.4999 13.5666C27.3246 14.3749 28.4037 14.8729 29.5539 14.9759C30.7041 15.0789 31.8545 14.7806 32.8097 14.1317C33.7649 13.4827 34.466 12.5231 34.794 11.4159C35.122 10.3086 35.0566 9.12199 34.6089 8.0575C34.1612 6.993 33.3588 6.11629 32.3381 5.57626C31.3173 5.03623 30.1411 4.86618 29.0092 5.09499C27.8773 5.3238 26.8595 5.93736 26.1286 6.83147C25.3978 7.72558 24.999 8.8451 24.9999 9.99991V10.5666L11.8332 16.4332C11.1305 15.7428 10.2395 15.2754 9.272 15.0896C8.30454 14.9038 7.30375 15.008 6.39527 15.389C5.4868 15.77 4.71112 16.4109 4.16562 17.2313C3.62012 18.0516 3.3291 19.0148 3.3291 19.9999C3.3291 20.985 3.62012 21.9482 4.16562 22.7686C4.71112 23.5889 5.4868 24.2298 6.39527 24.6108C7.30375 24.9918 8.30454 25.096 9.272 24.9102C10.2395 24.7244 11.1305 24.257 11.8332 23.5666L24.9999 29.4499V29.9999C24.9999 30.9888 25.2931 31.9555 25.8425 32.7778C26.392 33.6 27.1728 34.2409 28.0865 34.6193C29.0001 34.9977 30.0054 35.0968 30.9753 34.9038C31.9453 34.7109 32.8362 34.2347 33.5354 33.5354C34.2347 32.8362 34.7109 31.9453 34.9038 30.9754C35.0967 30.0055 34.9977 29.0001 34.6193 28.0865C34.2409 27.1729 33.6 26.392 32.7777 25.8426C31.9555 25.2931 30.9888 24.9999 29.9999 24.9999Z" fill="#231F20"/>
</svg>
