<svg width="158" height="38" viewBox="0 0 158 38" fill="none" xmlns="http://www.w3.org/2000/svg">
<g filter="url(#filter0_d_86_9546)">
<path d="M27.3353 29.9923C27.0949 29.9933 26.8578 29.9337 26.6438 29.8187L18.9775 25.6049L11.3111 29.8187C11.0621 29.9561 10.7815 30.0174 10.501 29.9957C10.2205 29.974 9.95138 29.8701 9.72432 29.6959C9.49726 29.5216 9.32133 29.2839 9.21651 29.0099C9.1117 28.7359 9.08222 28.4365 9.13141 28.1458L10.6346 19.2605L4.44139 12.9477C4.24816 12.7453 4.11109 12.4914 4.04488 12.2134C3.97867 11.9353 3.98583 11.6436 4.06558 11.3695C4.15271 11.089 4.31298 10.8398 4.5282 10.6501C4.74342 10.4604 5.00498 10.3379 5.28319 10.2963L13.8515 8.98643L17.6246 0.890278C17.7477 0.62345 17.9398 0.39842 18.1791 0.240965C18.4184 0.0835107 18.6951 0 18.9775 0C19.2598 0 19.5365 0.0835107 19.7758 0.240965C20.0151 0.39842 20.2073 0.62345 20.3303 0.890278L24.1485 8.97065L32.7168 10.2806C32.995 10.3221 33.2566 10.4446 33.4718 10.6343C33.687 10.824 33.8473 11.0732 33.9344 11.3537C34.0142 11.6278 34.0213 11.9195 33.9551 12.1976C33.8889 12.4756 33.7518 12.7295 33.5586 12.9319L27.3654 19.2447L28.8686 28.13C28.9223 28.4259 28.8942 28.7317 28.7876 29.0113C28.6811 29.291 28.5005 29.5328 28.2673 29.7082C27.9951 29.9084 27.6673 30.0083 27.3353 29.9923Z" fill="white"/>
<path d="M57.3353 29.9923C57.0949 29.9933 56.8578 29.9337 56.6438 29.8187L48.9775 25.6049L41.3111 29.8187C41.0621 29.9561 40.7815 30.0174 40.501 29.9957C40.2205 29.974 39.9514 29.8701 39.7243 29.6959C39.4973 29.5216 39.3213 29.2839 39.2165 29.0099C39.1117 28.7359 39.0822 28.4365 39.1314 28.1458L40.6346 19.2605L34.4414 12.9477C34.2482 12.7453 34.1111 12.4914 34.0449 12.2134C33.9787 11.9353 33.9858 11.6436 34.0656 11.3695C34.1527 11.089 34.313 10.8398 34.5282 10.6501C34.7434 10.4604 35.005 10.3379 35.2832 10.2963L43.8515 8.98643L47.6246 0.890278C47.7477 0.62345 47.9398 0.39842 48.1791 0.240965C48.4184 0.0835107 48.6951 0 48.9775 0C49.2598 0 49.5365 0.0835107 49.7758 0.240965C50.0151 0.39842 50.2073 0.62345 50.3303 0.890278L54.1485 8.97065L62.7168 10.2806C62.995 10.3221 63.2566 10.4446 63.4718 10.6343C63.687 10.824 63.8473 11.0732 63.9344 11.3537C64.0142 11.6278 64.0213 11.9195 63.9551 12.1976C63.8889 12.4756 63.7518 12.7295 63.5586 12.9319L57.3654 19.2447L58.8686 28.13C58.9223 28.4259 58.8942 28.7317 58.7876 29.0113C58.6811 29.291 58.5005 29.5328 58.2673 29.7082C57.9951 29.9084 57.6673 30.0083 57.3353 29.9923Z" fill="white"/>
<path d="M87.3353 29.9923C87.0949 29.9933 86.8578 29.9337 86.6438 29.8187L78.9775 25.6049L71.3111 29.8187C71.0621 29.9561 70.7815 30.0174 70.501 29.9957C70.2205 29.974 69.9514 29.8701 69.7243 29.6959C69.4973 29.5216 69.3213 29.2839 69.2165 29.0099C69.1117 28.7359 69.0822 28.4365 69.1314 28.1458L70.6346 19.2605L64.4414 12.9477C64.2482 12.7453 64.1111 12.4914 64.0449 12.2134C63.9787 11.9353 63.9858 11.6436 64.0656 11.3695C64.1527 11.089 64.313 10.8398 64.5282 10.6501C64.7434 10.4604 65.005 10.3379 65.2832 10.2963L73.8515 8.98643L77.6246 0.890278C77.7477 0.62345 77.9398 0.39842 78.1791 0.240965C78.4184 0.0835107 78.6951 0 78.9775 0C79.2598 0 79.5365 0.0835107 79.7758 0.240965C80.0151 0.39842 80.2073 0.62345 80.3303 0.890278L84.1485 8.97065L92.7168 10.2806C92.995 10.3221 93.2566 10.4446 93.4718 10.6343C93.687 10.824 93.8473 11.0732 93.9344 11.3537C94.0142 11.6278 94.0213 11.9195 93.9551 12.1976C93.8889 12.4756 93.7518 12.7295 93.5586 12.9319L87.3654 19.2447L88.8686 28.13C88.9223 28.4259 88.8942 28.7317 88.7876 29.0113C88.6811 29.291 88.5005 29.5328 88.2673 29.7082C87.9951 29.9084 87.6673 30.0083 87.3353 29.9923Z" fill="white"/>
<path d="M117.335 29.9923C117.095 29.9933 116.858 29.9337 116.644 29.8187L108.977 25.6049L101.311 29.8187C101.062 29.9561 100.781 30.0174 100.501 29.9957C100.22 29.974 99.9514 29.8701 99.7243 29.6959C99.4973 29.5216 99.3213 29.2839 99.2165 29.0099C99.1117 28.7359 99.0822 28.4365 99.1314 28.1458L100.635 19.2605L94.4414 12.9477C94.2482 12.7453 94.1111 12.4914 94.0449 12.2134C93.9787 11.9353 93.9858 11.6436 94.0656 11.3695C94.1527 11.089 94.313 10.8398 94.5282 10.6501C94.7434 10.4604 95.005 10.3379 95.2832 10.2963L103.851 8.98643L107.625 0.890278C107.748 0.62345 107.94 0.39842 108.179 0.240965C108.418 0.0835107 108.695 0 108.977 0C109.26 0 109.537 0.0835107 109.776 0.240965C110.015 0.39842 110.207 0.62345 110.33 0.890278L114.149 8.97065L122.717 10.2806C122.995 10.3221 123.257 10.4446 123.472 10.6343C123.687 10.824 123.847 11.0732 123.934 11.3537C124.014 11.6278 124.021 11.9195 123.955 12.1976C123.889 12.4756 123.752 12.7295 123.559 12.9319L117.365 19.2447L118.869 28.13C118.922 28.4259 118.894 28.7317 118.788 29.0113C118.681 29.291 118.501 29.5328 118.267 29.7082C117.995 29.9084 117.667 30.0083 117.335 29.9923Z" fill="white"/>
<path d="M147.335 29.9923C147.095 29.9933 146.858 29.9337 146.644 29.8187L138.977 25.6049L131.311 29.8187C131.062 29.9561 130.781 30.0174 130.501 29.9957C130.22 29.974 129.951 29.8701 129.724 29.6959C129.497 29.5216 129.321 29.2839 129.217 29.0099C129.112 28.7359 129.082 28.4365 129.131 28.1458L130.635 19.2605L124.441 12.9477C124.248 12.7453 124.111 12.4914 124.045 12.2134C123.979 11.9353 123.986 11.6436 124.066 11.3695C124.153 11.089 124.313 10.8398 124.528 10.6501C124.743 10.4604 125.005 10.3379 125.283 10.2963L133.851 8.98643L137.625 0.890278C137.748 0.62345 137.94 0.39842 138.179 0.240965C138.418 0.0835107 138.695 0 138.977 0C139.26 0 139.537 0.0835107 139.776 0.240965C140.015 0.39842 140.207 0.62345 140.33 0.890278L144.149 8.97065L152.717 10.2806C152.995 10.3221 153.257 10.4446 153.472 10.6343C153.687 10.824 153.847 11.0732 153.934 11.3537C154.014 11.6278 154.021 11.9195 153.955 12.1976C153.889 12.4756 153.752 12.7295 153.559 12.9319L147.365 19.2447L148.869 28.13C148.922 28.4259 148.894 28.7317 148.788 29.0113C148.681 29.291 148.501 29.5328 148.267 29.7082C147.995 29.9084 147.667 30.0083 147.335 29.9923Z" fill="white"/>
</g>
<defs>
<filter id="filter0_d_86_9546" x="0" y="0" width="158" height="38" filterUnits="userSpaceOnUse" color-interpolation-filters="sRGB">
<feFlood flood-opacity="0" result="BackgroundImageFix"/>
<feColorMatrix in="SourceAlpha" type="matrix" values="0 0 0 0 0 0 0 0 0 0 0 0 0 0 0 0 0 0 127 0" result="hardAlpha"/>
<feOffset dy="4"/>
<feGaussianBlur stdDeviation="2"/>
<feComposite in2="hardAlpha" operator="out"/>
<feColorMatrix type="matrix" values="0 0 0 0 0 0 0 0 0 0 0 0 0 0 0 0 0 0 0.25 0"/>
<feBlend mode="normal" in2="BackgroundImageFix" result="effect1_dropShadow_86_9546"/>
<feBlend mode="normal" in="SourceGraphic" in2="effect1_dropShadow_86_9546" result="shape"/>
</filter>
</defs>
</svg>
